# xmcd
#
# Track frame offsets: 
#        150
#        14044
#        27047
#        39278
#        50563
#        64674
#        77543
#        90950
#        104439
#        116352
#        129521
#        141761
#        157062
#        170107
#        182665
#        194232
#        205289
#        215522
#        227683
#        236139
#
# Disc length: 3302 seconds
#
# Revision: 0
# Processed by: cddbd v1.5.2PL0 Copyright (c) Steve Scherf et al.
# Submitted via: ExactAudioCopyFreeDBPlugin 1.0
#
DISCID=1a0ce414
DTITLE=Various Artist - The Roots of Led Zeppelin
DYEAR=2009
DGENRE=Blues
TTITLE0=Joe Liggins - HoneyDripper
TTITLE1=Arthur Crudup - That's Alright Mama
TTITLE2=Roy Brown - Rockin' At Midnight
TTITLE3=Sister Rosetta Tharpe - Down By The Riverside
TTITLE4=John Lee Hooker - Boogie Chillin'
TTITLE5=Hank Snow - I'm Movin' On
TTITLE6=Muddy Waters - Rollin' and Tumblin'
TTITLE7=BB King - Three O'Clock Blues
TTITLE8=Muddy Waters - Long Distance Call
TTITLE9=John Lee Hooker - I'm In The Mood
TTITLE10=Howlin Wolf - How Many More Years
TTITLE11=Muddy Waters - Honey Bee
TTITLE12=Elmore James - Dust My Broom
TTITLE13=Ray Charles - I Got A Woman
TTITLE14=Howlin Wolf - No Place To Go
TTITLE15=Lonnie Donegan - Rock Island Line
TTITLE16=Elvis Presley  - Baby Lets Play House
TTITLE17=Bo Diddley - I'm A Man
TTITLE18=Elvis Presley - Baby I Don't Care
TTITLE19=Gene Vincent - Be Bop A Lula
EXTD=
EXTT0=
EXTT1=
EXTT2=
EXTT3=
EXTT4=
EXTT5=
EXTT6=
EXTT7=
EXTT8=
EXTT9=
EXTT10=
EXTT11=
EXTT12=
EXTT13=
EXTT14=
EXTT15=
EXTT16=
EXTT17=
EXTT18=
EXTT19=
PLAYORDER=
